<?xml version="1.0" standalone="no"?>
<!DOCTYPE svg PUBLIC "-//W3C//DTD SVG 20010904//EN"
 "http://www.w3.org/TR/2001/REC-SVG-20010904/DTD/svg10.dtd">
<svg version="1.0" xmlns="http://www.w3.org/2000/svg"
 width="937.000000pt" height="937.000000pt" viewBox="0 0 937.000000 937.000000"
 preserveAspectRatio="xMidYMid meet">
<metadata>
Created by potrace 1.11, written by Peter Selinger 2001-2013
</metadata>
<g transform="translate(0.000000,937.000000) scale(0.100000,-0.100000)"
fill="#000000" stroke="none">
<path d="M5129 9355 c-26 -8 -52 -22 -59 -30 -7 -8 -18 -15 -24 -15 -19 0 -56
-48 -82 -107 -40 -90 -29 -234 26 -344 74 -146 250 -266 440 -301 177 -31 771
-47 928 -25 72 11 73 10 97 -16 14 -14 25 -33 25 -42 0 -8 5 -15 10 -15 6 0
10 -4 10 -10 0 -5 20 -41 45 -80 25 -39 45 -72 45 -74 0 -3 23 -41 50 -86 28
-45 50 -83 50 -86 0 -2 11 -21 23 -42 13 -20 44 -71 68 -112 24 -41 46 -77 49
-80 3 -3 12 -18 20 -35 8 -16 39 -70 69 -120 54 -90 72 -122 112 -192 12 -21
25 -42 29 -48 5 -5 23 -37 41 -70 18 -33 35 -62 39 -65 4 -3 15 -18 24 -35 9
-16 25 -43 35 -60 10 -16 28 -48 41 -70 12 -22 38 -66 57 -97 39 -65 38 -76
-10 -129 -18 -20 -55 -62 -82 -94 -28 -32 -55 -63 -60 -69 -6 -6 -39 -46 -73
-88 -34 -42 -75 -89 -90 -105 -15 -15 -41 -46 -57 -68 -17 -21 -37 -47 -45
-55 -8 -9 -37 -42 -64 -73 -27 -31 -55 -58 -63 -61 -7 -3 -28 7 -46 23 -46 39
-305 213 -374 251 -32 18 -62 35 -68 40 -22 18 -86 50 -99 50 -8 0 -16 4 -18
8 -7 16 -329 162 -358 162 -10 0 -22 5 -25 10 -3 6 -16 10 -29 10 -12 0 -26 4
-32 10 -5 5 -18 11 -29 13 -11 2 -36 10 -55 19 -19 9 -62 23 -95 32 -33 8 -87
22 -120 31 -82 22 -141 35 -200 45 -27 5 -79 14 -115 20 -78 13 -202 27 -370
39 -121 9 -586 5 -603 -6 -5 -3 -45 -9 -90 -14 -97 -11 -183 -24 -254 -38 -29
-6 -74 -15 -100 -20 -78 -14 -217 -52 -227 -62 -6 -5 -18 -9 -28 -9 -10 0 -26
-4 -36 -9 -9 -5 -44 -17 -77 -26 -33 -10 -76 -24 -95 -32 -49 -21 -69 -29
-115 -46 -76 -28 -169 -72 -300 -142 -228 -120 -467 -278 -591 -390 -6 -5 -27
-22 -45 -37 -111 -87 -289 -260 -394 -383 -42 -49 -86 -101 -98 -116 -54 -62
-120 -153 -197 -269 -45 -69 -90 -136 -100 -150 -9 -14 -25 -43 -35 -65 -11
-22 -25 -44 -32 -48 -7 -4 -13 -14 -13 -22 0 -8 -27 -68 -60 -134 -33 -66 -60
-122 -60 -125 0 -3 -11 -29 -24 -58 -13 -29 -33 -82 -45 -118 -13 -35 -25 -69
-29 -75 -14 -21 -96 -326 -117 -430 -59 -307 -74 -469 -69 -770 3 -233 10
-325 34 -490 32 -225 110 -527 180 -700 4 -11 13 -36 20 -55 19 -54 122 -282
152 -335 6 -11 27 -48 45 -83 43 -80 115 -196 125 -200 4 -2 8 -8 8 -13 0 -12
86 -140 131 -195 19 -23 52 -65 74 -94 22 -29 60 -75 84 -104 70 -81 371 -378
428 -421 185 -143 242 -185 251 -185 6 0 12 -4 14 -9 3 -10 192 -131 280 -180
117 -64 276 -140 376 -180 57 -22 118 -47 135 -55 18 -7 66 -24 107 -36 41
-13 102 -31 134 -42 130 -41 378 -94 501 -108 243 -26 312 -31 481 -33 171 -2
232 1 469 19 39 3 102 11 140 19 39 8 99 19 135 25 134 24 350 82 465 126 39
14 82 28 98 31 15 3 30 9 33 14 3 5 14 9 24 9 11 0 34 8 52 18 18 10 60 29 93
42 119 47 352 171 474 251 41 27 77 49 81 49 4 0 13 7 20 15 7 9 27 22 44 30
17 8 45 28 61 43 17 15 59 50 95 77 82 63 89 68 164 134 71 64 295 291 346
352 19 23 45 53 57 68 59 71 113 142 148 196 21 33 42 62 47 63 4 2 8 10 8 18
0 8 4 14 9 14 9 0 90 132 157 255 47 87 144 283 144 291 0 3 6 20 14 37 7 18
24 59 36 92 12 33 26 68 31 77 5 10 9 27 9 37 0 11 5 23 10 26 6 3 10 19 10
34 0 15 4 31 8 37 11 11 46 126 67 219 9 39 20 86 25 105 18 68 17 67 53 340
16 128 16 664 -1 800 -7 58 -17 130 -22 160 -5 30 -12 71 -15 90 -23 144 -106
452 -126 475 -5 5 -9 19 -9 31 0 13 -4 26 -10 29 -5 3 -10 15 -10 26 0 10 -8
38 -19 62 -10 23 -31 74 -47 112 -59 146 -172 356 -282 525 -134 207 -245 348
-406 518 -45 46 -82 88 -84 93 -2 4 14 27 35 51 21 24 61 70 88 103 27 33 54
65 60 71 5 6 30 35 55 64 25 30 63 75 85 100 22 25 56 65 75 89 59 72 91 103
103 98 7 -3 32 -40 56 -83 25 -44 47 -81 51 -84 3 -3 14 -21 23 -40 9 -19 33
-60 52 -90 19 -30 46 -75 60 -100 14 -25 40 -67 57 -95 30 -48 44 -73 89 -152
11 -20 36 -61 56 -91 19 -30 39 -64 44 -76 6 -12 15 -30 22 -41 7 -11 35 -58
63 -105 29 -47 61 -102 73 -122 53 -94 64 -115 80 -138 9 -14 23 -37 31 -52 7
-16 17 -28 22 -28 4 0 8 -5 8 -12 0 -7 25 -54 55 -104 30 -51 55 -97 55 -102
0 -10 33 -42 43 -42 10 0 9 748 -1 752 -8 3 -112 174 -112 184 0 3 -11 20 -25
38 -14 18 -25 36 -25 40 0 4 -13 27 -30 51 -16 24 -30 46 -30 49 0 3 -25 47
-56 98 -52 85 -65 107 -106 179 -7 13 -15 26 -18 29 -3 3 -15 23 -26 45 -45
85 -78 140 -86 143 -4 2 -8 8 -8 12 0 5 -14 32 -30 61 -17 28 -29 53 -27 56 4
3 531 5 555 2 31 -5 32 3 32 171 l0 170 -399 0 -399 0 -63 108 c-35 59 -66
112 -68 117 -2 6 -12 21 -21 35 -10 14 -27 42 -39 63 -45 79 -60 105 -116 197
-32 52 -67 113 -79 135 -11 22 -24 42 -28 43 -5 2 -8 7 -8 12 0 4 -21 42 -47
85 -27 42 -60 99 -75 126 -15 28 -36 63 -48 78 -11 16 -20 34 -20 40 0 6 -4
11 -10 11 -5 0 -10 5 -10 10 0 10 -103 194 -121 216 -5 7 -21 34 -34 60 l-25
49 38 7 c226 40 251 42 360 29 59 -7 130 -16 157 -21 97 -18 220 -42 260 -52
178 -42 300 2 300 106 0 106 -156 226 -410 316 -49 18 -99 34 -110 35 -19 3
-73 16 -140 35 -16 4 -59 13 -95 19 -36 5 -81 13 -100 16 -170 28 -504 47
-880 50 -341 2 -407 8 -508 41 -54 18 -158 70 -197 98 -26 20 -104 59 -170 86
-62 26 -197 34 -256 15z m-829 -2485 c17 -9 17 -13 4 -38 -7 -15 -14 -33 -14
-41 0 -8 -12 -29 -26 -48 -14 -18 -32 -55 -41 -81 -9 -26 -19 -51 -23 -57 -10
-14 -36 -99 -51 -165 -7 -30 -15 -62 -19 -70 -9 -17 -28 -98 -34 -145 -3 -16
-10 -59 -16 -95 -6 -36 -14 -87 -16 -115 -2 -27 -8 -75 -14 -105 -10 -58 -29
-336 -34 -508 -2 -57 -6 -106 -10 -109 -3 -4 -6 1 -6 9 0 9 -6 18 -14 21 -8 3
-16 16 -18 29 -2 15 -11 24 -25 26 -20 3 -23 10 -24 45 -1 23 -1 46 0 50 1 5
-3 6 -9 2 -5 -3 -10 -2 -10 4 0 6 -11 13 -24 17 -17 4 -28 18 -40 55 -8 28
-30 64 -47 81 -17 17 -35 42 -40 55 -5 12 -15 23 -23 23 -9 0 -17 15 -21 39
-7 43 -44 91 -70 91 -9 0 -13 4 -10 10 3 5 -3 15 -15 22 -11 7 -20 18 -20 25
0 18 -42 59 -67 67 -13 4 -23 14 -23 22 0 8 -4 14 -10 14 -5 0 -10 9 -10 20 0
13 -9 22 -26 26 -15 4 -23 12 -20 20 3 7 -2 18 -10 25 -8 6 -12 14 -9 17 3 3
-4 12 -15 19 -11 8 -18 18 -15 23 2 4 -9 13 -25 20 -16 7 -28 16 -25 19 2 4
-11 14 -30 21 -19 8 -35 19 -35 26 0 7 -9 16 -20 19 -11 3 -20 13 -20 21 0 8
-8 18 -17 21 -10 4 -24 15 -31 25 -7 10 -18 18 -23 18 -13 0 -115 102 -112
112 2 4 -8 9 -22 9 -14 1 -29 3 -35 4 -5 1 -19 3 -30 4 -25 1 -16 28 12 37 11
3 36 17 55 30 20 13 41 24 48 24 7 0 56 20 108 45 52 24 121 54 154 66 32 11
67 24 78 29 19 9 159 51 235 71 88 23 269 61 311 64 25 2 65 8 90 14 24 5 73
11 109 12 36 1 74 6 85 10 27 11 33 11 55 -1z m495 -10 c182 -16 387 -50 491
-81 38 -11 96 -27 129 -35 62 -15 98 -27 150 -49 17 -8 44 -17 60 -21 17 -4
35 -10 40 -14 6 -4 26 -12 45 -19 56 -19 108 -42 235 -105 l120 -60 -35 -10
c-19 -5 -39 -16 -43 -23 -5 -8 -39 -33 -75 -57 -64 -41 -422 -383 -422 -403 0
-5 -18 -26 -40 -48 -21 -21 -37 -42 -35 -46 3 -4 2 -9 -2 -11 -14 -6 -93 -106
-93 -117 0 -6 -4 -11 -10 -11 -5 0 -10 -9 -10 -19 0 -11 -8 -22 -18 -26 -11
-3 -36 -31 -58 -63 -21 -31 -41 -59 -45 -62 -3 -3 -18 -25 -33 -50 -15 -25
-47 -72 -71 -105 -24 -33 -44 -65 -44 -71 -1 -5 -12 -25 -26 -44 l-25 -34 0
40 c-3 162 -12 373 -19 394 -4 14 -9 54 -10 90 -2 35 -5 68 -7 72 -3 4 -9 60
-15 125 -5 65 -16 145 -24 178 -13 58 -20 91 -32 165 -3 19 -9 40 -13 45 -4 6
-13 37 -20 70 -12 62 -17 75 -42 135 -9 19 -19 51 -23 70 -4 19 -15 44 -25 55
-10 11 -21 31 -25 44 -4 14 -11 29 -16 35 -5 6 -20 25 -34 42 -25 32 -23 49 4
39 9 -4 61 -10 116 -15z m-2183 -672 c2 -56 11 -107 20 -128 9 -19 18 -66 21
-105 3 -47 13 -89 31 -128 14 -32 26 -68 26 -81 0 -13 6 -28 13 -34 7 -6 14
-26 15 -44 1 -18 9 -38 17 -44 8 -6 15 -16 15 -21 0 -6 6 -16 14 -22 11 -9 37
-82 40 -114 1 -4 6 -11 12 -15 15 -10 26 -41 31 -92 6 -54 19 -80 38 -80 8 0
15 -7 15 -15 0 -8 4 -15 9 -15 5 0 12 -23 16 -52 5 -34 15 -58 30 -72 12 -12
26 -36 30 -54 4 -22 15 -36 31 -42 16 -7 24 -17 24 -34 0 -37 10 -56 31 -56
12 0 16 -5 13 -15 -4 -8 -1 -15 5 -15 14 0 47 -67 38 -77 -9 -8 -49 14 -89 49
-18 16 -43 28 -58 28 -15 0 -39 9 -53 20 -14 11 -29 20 -33 20 -10 0 -116 52
-124 60 -10 11 -61 30 -79 30 -10 0 -30 9 -44 20 -14 11 -32 20 -40 20 -7 0
-27 6 -43 14 -73 35 -178 76 -264 102 -30 9 -59 20 -65 24 -5 4 -32 13 -60 20
-27 7 -54 16 -60 20 -5 4 -23 10 -40 14 -16 4 -48 11 -70 16 -22 5 -69 16
-104 24 -35 8 -91 16 -125 17 -101 4 -102 6 -51 79 19 28 51 74 71 103 34 48
101 135 114 147 3 3 32 37 65 75 86 101 287 297 399 390 98 80 196 153 207
154 4 1 9 -41 11 -91z m3853 23 c22 -11 55 -34 73 -49 l33 -29 -58 -69 c-32
-38 -76 -92 -98 -118 -22 -27 -57 -67 -78 -90 -34 -36 -38 -38 -32 -16 3 14
10 48 15 75 5 28 21 93 35 145 15 52 27 121 28 152 2 56 2 56 22 38 11 -10 38
-27 60 -39z m412 -355 c4 -7 36 -45 70 -82 80 -89 213 -251 213 -260 0 -4 7
-16 17 -26 17 -19 25 -31 61 -98 18 -32 21 -45 12 -50 -7 -4 -68 -11 -136 -15
-83 -5 -124 -11 -127 -19 -3 -7 -31 -16 -62 -19 -31 -3 -64 -12 -74 -20 -9 -8
-32 -18 -51 -22 -19 -4 -45 -13 -57 -21 -12 -8 -34 -14 -49 -14 -15 0 -35 -7
-44 -15 -8 -8 -41 -21 -72 -29 -31 -8 -70 -21 -86 -30 -17 -9 -37 -16 -44 -16
-8 0 -31 -9 -53 -20 -22 -11 -45 -20 -52 -20 -6 0 -18 -8 -25 -19 -8 -11 -32
-21 -60 -25 -25 -4 -52 -14 -59 -22 -11 -14 -90 -54 -117 -60 -14 -3 -7 8 28
46 8 9 33 39 55 65 65 79 132 157 175 205 14 16 32 36 40 46 9 11 47 57 85
104 38 47 72 87 75 90 5 4 98 112 138 160 7 8 27 31 43 50 16 19 51 61 77 92
48 59 65 69 79 44z m-5191 -1133 c147 -137 177 -163 186 -163 4 0 31 -22 59
-50 28 -27 56 -50 63 -50 6 0 42 -25 80 -55 38 -30 75 -55 82 -55 7 0 17 -6
21 -13 9 -13 85 -67 96 -67 4 0 33 -18 64 -40 32 -22 63 -40 70 -40 6 0 18 -6
25 -13 20 -20 129 -91 159 -104 15 -6 28 -22 31 -35 4 -22 1 -23 -46 -23 -157
2 -532 -26 -701 -51 -55 -8 -143 -22 -195 -29 -120 -18 -201 -36 -217 -48 -7
-5 -19 -7 -27 -4 -7 3 -22 0 -32 -7 -11 -7 -32 -16 -49 -19 -34 -5 -121 -30
-147 -42 -20 -8 -21 -25 7 200 8 66 19 141 25 168 5 26 15 71 20 100 21 102
54 224 80 292 4 11 13 38 19 60 7 22 21 59 32 82 10 24 19 47 19 52 0 5 7 22
15 38 8 15 24 51 37 78 l23 50 46 -55 c25 -30 95 -101 155 -157z m5831 160 c7
-16 23 -58 36 -95 13 -36 28 -72 34 -80 6 -7 20 -44 32 -83 12 -38 26 -79 30
-90 25 -58 87 -335 111 -497 20 -138 16 -250 -8 -211 -9 13 -77 33 -116 33
-21 0 -27 4 -22 15 3 8 2 14 -2 13 -21 -5 -117 16 -133 30 -10 9 -29 17 -41
18 -13 2 -58 6 -100 9 -43 4 -78 10 -78 15 0 4 -6 7 -12 7 -7 -1 -51 2 -98 6
-47 4 -159 12 -250 19 -226 15 -227 15 -241 24 -7 4 -78 7 -159 7 -81 -1 -153
3 -161 8 -11 7 -11 9 4 9 9 0 17 4 17 8 0 4 16 14 35 21 19 7 35 17 35 22 0 5
7 9 16 9 17 0 118 63 129 79 3 5 18 12 34 16 16 3 32 12 35 20 3 8 31 26 63
41 32 15 66 34 75 43 37 35 53 46 80 58 15 7 28 16 28 21 0 5 15 16 33 23 32
13 77 54 77 70 0 5 7 9 15 9 8 0 24 9 35 20 11 11 23 20 28 20 4 0 20 11 36
25 16 14 32 25 36 25 4 0 35 27 69 60 34 33 73 63 86 66 15 4 25 13 25 24 0 9
25 39 55 66 30 27 55 55 55 62 0 6 4 12 8 12 5 0 15 11 22 25 17 32 32 32 47
-2z m-6277 -1586 c14 -7 45 -19 70 -26 25 -7 56 -17 70 -21 14 -4 52 -13 85
-20 33 -7 83 -19 110 -27 28 -8 73 -17 100 -20 28 -2 106 -13 174 -24 69 -11
161 -22 205 -25 45 -3 106 -7 136 -10 202 -17 315 -22 402 -18 102 5 115 -1
60 -29 -57 -29 -129 -71 -185 -109 -32 -21 -61 -38 -63 -38 -3 0 -37 -21 -77
-47 -40 -27 -80 -52 -89 -58 -44 -27 -266 -187 -290 -210 -15 -14 -30 -25 -33
-25 -25 0 -296 -252 -384 -357 l-44 -52 -34 77 c-33 76 -54 130 -88 227 -10
28 -21 59 -25 70 -4 11 -14 40 -21 65 -7 25 -16 49 -21 54 -4 6 -8 25 -8 43 0
17 -4 42 -9 55 -5 13 -14 50 -21 83 -6 33 -16 78 -20 100 -5 22 -12 67 -15
100 -4 32 -8 62 -10 65 -2 3 -6 33 -10 65 -3 33 -8 75 -11 93 -6 36 5 40 46
19z m6531 -32 c9 -8 -26 -283 -50 -390 -19 -88 -45 -186 -82 -305 -39 -123
-53 -163 -90 -247 -11 -24 -19 -46 -19 -50 0 -5 -9 -23 -20 -41 l-20 -33 -36
43 c-20 24 -43 52 -53 63 -22 26 -188 177 -226 206 -16 13 -32 26 -35 29 -3 3
-34 28 -70 55 -36 28 -67 52 -70 56 -3 3 -27 21 -55 40 -27 18 -52 37 -55 40
-6 6 -158 109 -186 125 -40 24 -199 124 -209 132 -5 4 -17 11 -25 15 -8 4 -33
18 -55 32 -22 14 -52 31 -67 37 -16 7 -28 16 -28 19 0 4 64 8 143 8 78 1 153
3 167 6 74 12 113 16 195 20 227 12 292 17 335 26 64 14 145 26 215 32 33 3
74 12 90 21 17 9 37 16 46 16 9 0 36 7 60 16 24 9 62 18 84 21 22 3 42 7 44 9
6 6 67 5 72 -1z m-1806 -1034 c72 -37 329 -156 390 -181 11 -5 70 -28 130 -53
61 -24 169 -64 240 -87 72 -24 139 -46 150 -50 68 -25 361 -84 375 -75 6 3 10
-3 10 -14 0 -10 -4 -21 -8 -23 -5 -1 -31 -37 -58 -78 -27 -41 -54 -79 -60 -85
-6 -5 -37 -44 -70 -85 -32 -41 -72 -91 -88 -110 -61 -70 -315 -318 -345 -336
-17 -10 -31 -21 -31 -25 0 -4 -35 -33 -77 -65 -43 -31 -80 -61 -83 -64 -5 -7
-45 -30 -52 -30 -2 0 -1 23 0 50 2 28 1 58 -4 68 -4 9 -9 26 -10 37 -3 17 -14
60 -19 75 -7 22 -18 48 -25 60 -4 9 -11 48 -15 87 -4 44 -12 74 -20 77 -13 4
-38 77 -49 140 -3 16 -9 32 -13 35 -5 3 -17 26 -27 51 -11 25 -32 72 -47 105
-14 33 -33 78 -40 100 -7 22 -21 52 -31 67 -10 14 -18 32 -18 40 0 7 -9 24
-20 38 -11 14 -20 29 -20 34 0 5 -10 23 -23 40 -13 17 -47 79 -76 139 -29 59
-57 107 -62 107 -5 0 -9 6 -9 13 0 7 -9 23 -20 35 -36 38 -21 44 33 13 28 -16
70 -39 92 -50z m-2805 54 c0 -3 -13 -24 -30 -47 -16 -22 -30 -46 -30 -52 0 -6
-21 -42 -45 -80 -25 -38 -45 -75 -45 -83 0 -7 -11 -19 -25 -25 -14 -6 -26 -18
-27 -27 0 -9 -2 -21 -2 -28 -1 -6 -5 -15 -9 -19 -4 -4 -7 -17 -8 -28 0 -12
-11 -39 -24 -61 -13 -22 -35 -65 -50 -95 -15 -30 -34 -71 -44 -90 -10 -19 -26
-63 -37 -97 -10 -35 -22 -63 -26 -63 -5 0 -8 -8 -8 -18 0 -10 -3 -22 -7 -26
-10 -9 -33 -78 -33 -98 0 -9 -5 -18 -12 -20 -6 -2 -13 -13 -14 -24 -8 -54 -17
-95 -35 -158 -28 -94 -29 -99 -36 -198 -3 -49 -10 -88 -15 -88 -9 0 -59 30
-68 41 -3 3 -28 24 -56 45 -28 21 -74 57 -102 79 -56 44 -383 372 -422 424
-14 18 -37 47 -53 64 -15 18 -43 55 -62 83 -18 28 -41 56 -49 63 -9 8 -16 18
-16 23 0 5 -11 26 -25 46 -14 20 -25 39 -25 43 0 3 37 11 83 18 82 13 255 55
412 101 134 39 391 142 595 238 52 25 113 53 135 63 22 10 47 23 55 27 102 58
160 83 160 67z m856 -489 c-6 -29 8 -398 18 -491 3 -29 12 -121 22 -240 3 -33
11 -66 17 -73 11 -14 66 -268 67 -309 0 -12 6 -26 13 -30 8 -4 19 -33 25 -63
6 -30 15 -66 20 -80 5 -14 10 -28 11 -33 0 -4 25 -55 56 -113 l56 -107 -73 6
c-40 4 -107 11 -148 17 -41 6 -106 15 -145 20 -70 10 -144 23 -200 36 -76 17
-379 110 -407 125 -10 5 -24 9 -31 9 -7 0 -31 9 -53 19 -80 39 -175 81 -182
81 -4 0 -38 18 -76 39 l-69 39 42 9 c24 4 42 12 42 16 -2 10 41 46 94 79 22
14 61 45 86 69 25 24 69 64 98 89 28 25 51 50 51 57 0 6 9 15 21 18 11 4 23
15 27 25 7 18 81 104 179 206 23 24 44 57 48 74 3 16 14 32 23 35 9 3 36 33
60 68 23 34 72 105 108 157 84 123 81 120 107 120 18 0 23 6 25 31 3 33 25 94
43 116 20 24 31 14 25 -21z m1011 -24 c4 -9 15 -29 25 -44 10 -14 18 -33 18
-41 0 -8 7 -17 15 -21 8 -3 15 -12 15 -20 0 -8 6 -19 13 -23 22 -14 82 -96
107 -146 13 -27 36 -57 51 -68 15 -11 30 -33 34 -49 5 -21 14 -32 31 -36 13
-3 24 -10 24 -16 0 -15 91 -138 111 -151 11 -7 19 -17 19 -24 0 -6 9 -15 20
-18 11 -3 20 -11 20 -16 0 -19 65 -99 86 -105 11 -3 28 -21 39 -40 10 -19 22
-34 27 -34 5 0 31 -23 59 -50 27 -28 54 -50 59 -50 6 0 10 -7 10 -15 0 -8 11
-17 25 -21 14 -3 29 -12 33 -19 4 -6 30 -27 57 -46 28 -19 50 -39 51 -44 0 -6
9 -11 20 -13 44 -7 49 -13 23 -26 -13 -7 -46 -25 -72 -40 -27 -15 -78 -39
-115 -52 -37 -14 -78 -31 -92 -39 -23 -12 -57 -27 -105 -46 -92 -36 -405 -123
-535 -148 -98 -19 -238 -36 -388 -47 l-74 -6 33 31 c17 17 35 31 39 31 4 0 11
15 14 33 4 17 15 46 24 63 9 17 26 49 38 70 11 22 28 75 38 119 9 44 27 116
41 160 25 85 32 111 46 190 4 28 10 61 13 75 2 14 7 50 11 80 4 30 9 64 11 75
2 11 6 67 10 125 4 58 10 114 14 125 3 11 5 79 4 150 -1 72 0 151 3 177 5 43
7 46 25 37 10 -6 22 -18 25 -27z"/>
<path d="M4815 6693 c2 -10 4 -20 4 -23 1 -3 5 2 10 10 10 15 6 30 -9 30 -4 0
-7 -8 -5 -17z"/>
<path d="M2627 5693 c-10 -9 -9 -23 1 -23 5 0 9 7 9 15 0 17 -1 18 -10 8z"/>
<path d="M2745 5400 c-9 -15 3 -30 20 -24 7 3 11 12 8 20 -6 16 -19 18 -28 4z"/>
</g>
</svg>
